# xmcd
#
# Track frame offsets:
#	150
#	17565
#	38949
#	52855
#	73943
#	92898
#	119439
#	156753
#	180568
#	200953
#	212833
#	231004
#	269953
#
# Disc length: 4598 seconds
#
# Revision: 2
# Processed by: cddbd v1.5.1PL2 Copyright (c) Steve Scherf et al.
# Submitted via: freedbtool 1.11
#
DISCID=c311f40d
DTITLE=Stevie Ray Vaughan - Peace in the Valley
DYEAR=1990
DGENRE=Blues
TTITLE0=Tightrope
TTITLE1=The Things I Used To Do
TTITLE2=Let Me Love You Baby
TTITLE3=Leave My Little Girl Alone
TTITLE4=(Look At) Little Sister
TTITLE5=Wall Of Denial
TTITLE6=Riviera Paradise
TTITLE7=Superstition
TTITLE8=Couldn't Stand The Weather
TTITLE9=Goin' Down
TTITLE10=Crossfire
TTITLE11=Voodoo Child (Slight Return)
TTITLE12=Chigago
EXTD=
EXTT0=
EXTT1=
EXTT2=
EXTT3=
EXTT4=
EXTT5=
EXTT6=
EXTT7=
EXTT8=
EXTT9=
EXTT10=
EXTT11=
EXTT12=
PLAYORDER=
